<svg xmlns="http://www.w3.org/2000/svg" viewBox="0 0 56 56"><g transform="translate(413.93 191.2)"><path fill="#ffffff"
                                                                                                         d="m-399.54-172.2c-.215 0-.414.133-.476.339l-4.175 13.842c-.126.51-.226.66-.203.924.086 1.148 1.359 2.896 3.059 2.896 1.627-.061 2.537-.608 2.869-1.292.404.714 1.326 1.292 2.312 1.292 1.118 0 2.01-.749 2.542-1.59.528.841 1.436 1.59 2.556 1.59 1.119 0 2.042-.749 2.569-1.59.528.841 1.451 1.59 2.57 1.59 1.118 0 2.041-.749 2.57-1.59.525.841 1.45 1.59 2.567 1.59 1.122 0 2.056-.749 2.585-1.59.527.841 1.396 1.59 2.515 1.59.984 0 1.892-.578 2.299-1.292.903 1.104 1.493 1.285 2.881 1.292 1.698 0 2.959-1.747 3.045-2.896-.021-.455.013-.585-.135-.897l-4.241-13.868c-.063-.205-.249-.339-.463-.339h-27.25zm4.337.802h2.937l-1.862 13.758h-4.093l3.02-13.758m7.831 0h2.801l.571 13.758h-3.984l.612-13.758m7.817 0h2.924l3.03 13.758h-4.133l-1.822-13.758"/></g></svg>