<svg xmlns="http://www.w3.org/2000/svg" viewBox="0 0 24 24" width="48" height="48">
    <path fill="#ffffff" d="M 5 2 C 5.819 2.819 10.613 4.874 11 20 C 11.016 20.643 11 21.309 11 22 L 14 22 C 14 2.125 7.042 2 5 2 z M 19 5 C 16.523 5.099 14.7435 6.238 13.4375 8 C 13.9255 9.255 14.2675 10.141 14.5625 12 C 15.7385 6.792 18.388 5.612 19 5 z M 2 9 C 2.764 9.764 6.724 12.085 7 21 C 7.01 21.325 7 21.658 7 22 L 10 22 C 10 13.517 7.5 9.219 2 9 z M 22 9 C 20.031 9 15 11.25 15 22 L 18 22 C 18 12.958 21.125 9.875 22 9 z"/>
</svg>