<?xml version="1.0" encoding="utf-8"?>
<svg version="1.1" width="24" height="24" viewBox="0 0 24 24" xmlns="http://www.w3.org/2000/svg">
  <path fill="#ffffff" d="M 6 2 L 18 2 L 18 8 L 18 8 L 18 8 L 14 12 L 18 16 L 18 16 L 18 16 L 18 22 L 6 22 L 6 16 L 6 16 L 6 16 L 10 12 L 6 8 L 6 8 L 6 8 L 6 2 M 16 16.5 L 12 12.5 L 8 16.5 L 8 20 L 16 20 L 16 16.5 M 12 11.5 L 16 7.5 L 16 4 L 8 4 L 8 7.5 L 12 11.5 M 10 6 L 14 6 L 14 6.75 L 12 8.75 L 10 6.75 L 10 6 Z" transform="matrix(-1, 0, 0, -1, 24, 24)"/>
</svg>