<svg xmlns="http://www.w3.org/2000/svg" xmlns:xlink="http://www.w3.org/1999/xlink" viewBox="0 0 24 24" version="1.1" width="48" height="48">
<g id="surface1">
<path fill="#ffffff" d="M 12 2.5 L 10.5 4 L 8 4 L 8 6.5 L 6.5 8 L 7.5 9 L 9.6875 9 C 9.585938 8.699219 9.5 8.398438 9.5 8 C 9.5 6.601563 10.601563 5.5 12 5.5 C 13.398438 5.5 14.5 6.601563 14.5 8 C 14.5 8.398438 14.414063 8.699219 14.3125 9 L 16.5 9 L 17.5 8 L 16 6.5 L 16 4 L 13.5 4 Z M 4.90625 10 C 4.40625 10 4.007813 10.3125 3.90625 10.8125 L 2 20 L 2 21 C 2 21.601563 2.398438 22 3 22 L 21 22 C 21.601563 22 22 21.601563 22 21 L 22 20 L 20.09375 10.8125 C 19.992188 10.3125 19.59375 10 19.09375 10 Z M 5.59375 12 L 18.3125 12 L 19.6875 19 L 4.1875 19 Z M 6.90625 13 L 6.5 15 L 9.3125 15 L 9.5 13 Z M 10.6875 13 L 10.59375 15 L 13.40625 15 L 13.3125 13 Z M 14.5 13 L 14.6875 15 L 17.5 15 L 17.09375 13 Z M 6.3125 16 L 5.90625 18 L 9 18 L 9.1875 16 Z M 10.59375 16 L 10.5 18 L 13.5 18 L 13.40625 16 Z M 14.8125 16 L 15 18 L 18.09375 18 L 17.6875 16 Z "/>
</g>
</svg>