<svg xmlns="http://www.w3.org/2000/svg" viewBox="0 0 56 56"><g fill="#ffffff"><path fill="#ffffff" d="m37.2 31.526c0 0-3.124 5.655-3.124 7.595s1.023 3.879 3.07 3.879c2.479 0 3.394-2.047 3.394-3.879 0-1.831-3.34-7.595-3.34-7.595"/><path fill="#ffffff" d="m37.417 33.25c0 0 5.063 6.842.7 8.834 0 0-.646-1.508.107-2.37s-.323-6.087-.807-6.464"/><path fill="#ffffff" d="m15.459 22.18h4.098c0 0 .896 1.319.815 1.197-.082-.122 2.935-.115 2.935-.115l.815-1.403 5.339-.131c0 0 .857 1.647 2.283 1.647s7.5-1.196 7.378 7.313h-3.791c0 0 .611-3.261-3.18-2.975 0 0-4.442 4.336-9.945.592h-1.427l-1.183.681h-4.138v-6.806"/><path fill="#ffffff" d="m22.606 19.459h8.509v2.723h-8.509z"/><path fill="#ffffff" d="m29.91 19.807c0 0-.897-1.793-2.976-1.752-2.079.041-2.731 1.671-2.731 1.671l5.707.081"/><path fill="#ffffff" d="m26.351 18.779v-2.383h-1.022v-2.386h2.721v2.386h-.679v2.383"/><path fill="#ffffff" d="m19.543 13v3.668l5.786-1.344v-.979z"/><path fill="#ffffff" d="m33.838 13v3.668l-5.788-1.344v-.979z"/><path fill="#ffffff" d="m29.511 22.451c0 0 .967 1.692 4.352 1.39s4.291 3.928 4.291 3.928-1.329-2.539-3.687-2.539c-2.358.0001-4.714-.905-4.956-2.779"/><path fill="#ffffff" d="m23.467 19.8h6.968v1.624z"/></g></svg>